<svg xmlns="http://www.w3.org/2000/svg" width="900" height="650" viewBox="0 0 900 650">
<defs><linearGradient id="g" x1="0" y1="0" x2="1" y2="1"><stop stop-color="#EAF5FF"/><stop offset="1" stop-color="#FFFFFF"/></linearGradient></defs>
<rect width="900" height="650" rx="46" fill="url(#g)"/>
<circle cx="730" cy="120" r="130" fill="#D7ECFF"/>
<circle cx="160" cy="540" r="160" fill="#F3FAFF"/>
<path d="M296 220c72-66 182-66 255 0 74 67 72 179 7 245-65 66-199 66-264 0-66-66-70-178 2-245z" fill="#fff" stroke="#B7D8F8" stroke-width="10"/>
<path d="M370 245c25-28 67-34 99-13 28-20 72-16 98 13" fill="none" stroke="#0B76DB" stroke-width="24" stroke-linecap="round"/>
<path d="M435 290c-34 45-54 94-54 144m95-144c35 45 54 94 54 144" fill="none" stroke="#0B76DB" stroke-width="18" stroke-linecap="round"/>
<text x="450" y="535" text-anchor="middle" font-family="Arial, sans-serif" font-size="34" font-weight="800" fill="#0B305C">Clinic Showcase 3</text>
</svg>
